<svg version="1.1" xmlns="http://www.w3.org/2000/svg" viewBox="0 0 3183.087662337649 1354.1879924893096" width="3183.087662337649" height="1354.1879924893096">
  <!-- svg-source:excalidraw -->
  
  <defs>
    <style>
      @font-face {
        font-family: "Virgil";
        src: url("https://excalidraw.com/Virgil.woff2");
      }
      @font-face {
        font-family: "Cascadia";
        src: url("https://excalidraw.com/Cascadia.woff2");
      }
    </style>
  </defs>
  <rect x="0" y="0" width="3183.087662337649" height="1354.1879924893096" fill="#ffffff"></rect><g stroke-linecap="round" transform="translate(10 723.2692226879806) rotate(0 124.65909090909099 67.90373244641546)"><path d="M-0.72 -0.76 C84.34 1.24, 170.11 1.24, 249.48 -1.4 M0.41 -0.68 C95.46 -1.53, 189.74 -0.15, 248.84 -0.81 M249.97 1.76 C251.51 34.05, 249.53 68.76, 250.84 137.29 M249.26 0.93 C248.45 27.08, 247.63 54.54, 249.47 135.58 M249.29 136.91 C184.65 134.99, 118.78 138.12, -0.15 135.23 M249.21 135.87 C183.59 135.34, 117.77 135.97, 0.27 136.38 M1.03 135.39 C2.35 99.03, 1.66 66.77, -1.89 -1.83 M-0.39 135.55 C0.15 96.85, 0.58 59.02, -0.79 0.57" stroke="#000000" stroke-width="1" fill="none"></path></g><g transform="translate(45.09090909090946 767.2237681425261) rotate(0 86 22.5)"><text x="86" y="32" font-family="Virgil, Segoe UI Emoji" font-size="36px" fill="#000000" text-anchor="middle" style="white-space: pre;" direction="ltr">Mounted()</text></g><g stroke-linecap="round" transform="translate(494.65079365079146 721.4210457971201) rotate(0 140.659090909091 67.90373244641546)"><path d="M1.36 -1.12 C101.28 1.08, 204.21 1.83, 281.01 0.27 M-0.4 -0.02 C96.23 -0.18, 192.96 -0.41, 281.32 -0.61 M280.72 -0.89 C282.78 50.63, 281.68 102.12, 282.31 137.68 M281.04 -0.09 C282.04 45.89, 281.71 90.7, 280.9 135.19 M282.83 136.87 C224.2 136.12, 166.76 135.27, -0.58 135.44 M281.96 135.44 C187.87 135.83, 93.95 136.86, 0.74 135.96 M0.45 134.99 C2.19 89.17, 3.13 42.43, -0.11 -0.3 M-0.64 135.61 C-0.32 97.85, -0.01 60.05, 0.45 -0.16" stroke="#000000" stroke-width="1" fill="none"></path></g><g transform="translate(540.2417027417005 766.375591251666) rotate(0 93.5 22.5)"><text x="93.5" y="32" font-family="Virgil, Segoe UI Emoji" font-size="36px" fill="#000000" text-anchor="middle" style="white-space: pre;" direction="ltr">NewGame()</text></g><g stroke-linecap="round"><g transform="translate(269.5277777777719 786.0920942608504) rotate(0 105.48998899981393 1.9459009207877216)"><path d="M-0.82 0.97 C34.67 1.36, 176.27 1.64, 211.8 1.95 M0.95 0.43 C36.37 1.06, 175.61 3.39, 210.75 3.46" stroke="#000000" stroke-width="1" fill="none"></path></g><g transform="translate(269.5277777777719 786.0920942608504) rotate(0 105.48998899981393 1.9459009207877216)"><path d="M184.06 13.09 C188.19 12.16, 195.42 9.92, 212.44 1.53 M183.09 12.82 C189.64 10.76, 196.87 9.26, 209.81 3" stroke="#000000" stroke-width="1" fill="none"></path></g><g transform="translate(269.5277777777719 786.0920942608504) rotate(0 105.48998899981393 1.9459009207877216)"><path d="M184.27 -7.43 C188.3 -4.16, 195.48 -2.2, 212.44 1.53 M183.31 -7.7 C189.91 -4.55, 197.08 -0.84, 209.81 3" stroke="#000000" stroke-width="1" fill="none"></path></g></g><g stroke-linecap="round" transform="translate(968.0234487734438 505.4105840366567) rotate(0 212.08766233766232 67.90373244641546)"><path d="M0.88 0.11 C114.26 -2.01, 229.83 -0.29, 424.45 -0.33 M0.03 -0.4 C137.58 -1.76, 274.57 -1.22, 423.68 0.39 M423.15 0.56 C423.53 49.86, 424.27 102.12, 425.52 137.46 M423.8 -0.2 C423.86 38.45, 423.12 75.97, 424.68 134.85 M424.45 135.32 C312.78 136.52, 200.68 136.87, -0.35 134.92 M424.16 135.68 C258.63 134.93, 93.76 134.62, -0.45 135.98 M-1.51 134.5 C2.34 89.24, 1.42 42.03, -1.6 1.75 M0.25 135.66 C0.44 90.96, 0.78 46.33, 0.3 -0.89" stroke="#000000" stroke-width="1" fill="none"></path></g><g transform="translate(1006.6619769119729 550.3651294912027) rotate(0 174.5 22.5)"><text x="174.5" y="32" font-family="Virgil, Segoe UI Emoji" font-size="36px" fill="#000000" text-anchor="middle" style="white-space: pre;" direction="ltr">createMap(context)</text></g><g stroke-linecap="round"><g transform="translate(791.2222222222176 790.4231766235164) rotate(0 77.93287712589972 -111.90320526942332)"><path d="M1.11 0.34 C26.97 -37.05, 129.86 -186.69, 155.63 -224.14 M0.23 -0.53 C25.87 -37.73, 128.74 -185.47, 154.51 -222.57" stroke="#000000" stroke-width="1" fill="none"></path></g><g transform="translate(791.2222222222176 790.4231766235164) rotate(0 77.93287712589972 -111.90320526942332)"><path d="M147.4 -194.1 C149.52 -203.81, 151.77 -214.48, 155.12 -221.27 M146.24 -194.22 C149.63 -203.01, 151.43 -213.2, 154.06 -222.03" stroke="#000000" stroke-width="1" fill="none"></path></g><g transform="translate(791.2222222222176 790.4231766235164) rotate(0 77.93287712589972 -111.90320526942332)"><path d="M130.56 -205.82 C138.41 -211.7, 146.38 -218.4, 155.12 -221.27 M129.4 -205.94 C138.3 -210.79, 145.55 -217.19, 154.06 -222.03" stroke="#000000" stroke-width="1" fill="none"></path></g></g><g stroke-linecap="round" transform="translate(342.2893217893143 937.1883618144329) rotate(0 124.65909090909099 67.90373244641546)"><path d="M-1.06 -0.21 C96.76 -0.41, 191.38 -0.34, 248.77 1.45 M-0.47 0.24 C95.39 -1.85, 190.61 -1.21, 248.69 -0.39 M249.07 -0.41 C248.03 45.05, 248.34 86.61, 249.31 134.01 M249.19 0.05 C249.13 44.95, 248.72 88.36, 249.96 135.46 M249.01 136.15 C168.98 136.49, 90.15 134.97, 0.55 136.16 M249.58 135.27 C159.89 136.36, 70.54 135.49, -0.66 136.08 M1.99 136.19 C-1.27 93.06, -1.21 51.69, 1.37 -1.9 M-0.06 136.21 C1.41 92.92, 1.25 49.32, -0.66 0.11" stroke="#000000" stroke-width="1" fill="none"></path></g><g transform="translate(361.04689754689025 982.8095739356455) rotate(0 104 22.5)"><text x="104" y="32" font-family="Virgil, Segoe UI Emoji" font-size="36px" fill="#000000" text-anchor="middle" style="white-space: pre;" direction="ltr">LoadGame()</text></g><g stroke-linecap="round"><g transform="translate(271.9484126984039 857.1724691703415) rotate(0 30.27893201956067 55.47658372332569)"><path d="M0.87 0.8 C11 19.18, 50.96 92.55, 60.69 110.79 M-0.13 0.17 C9.91 18.17, 49.79 90.48, 60.1 109.05" stroke="#000000" stroke-width="1" fill="none"></path></g><g transform="translate(271.9484126984039 857.1724691703415) rotate(0 30.27893201956067 55.47658372332569)"><path d="M38.8 90.49 C45.42 93.66, 51.07 102.55, 58.89 108.74 M36.81 89.2 C43.08 94.61, 47.33 98.93, 59.51 108.82" stroke="#000000" stroke-width="1" fill="none"></path></g><g transform="translate(271.9484126984039 857.1724691703415) rotate(0 30.27893201956067 55.47658372332569)"><path d="M56.76 80.55 C58.14 86.78, 58.51 98.59, 58.89 108.74 M54.76 79.27 C57 86.81, 57.17 93.38, 59.51 108.82" stroke="#000000" stroke-width="1" fill="none"></path></g></g><g stroke-linecap="round" transform="translate(1578.150432900423 304.9264570525279) rotate(0 212.08766233766232 67.90373244641546)"><path d="M0.3 0.58 C144.11 -0.48, 288.07 -1.1, 425.15 0.02 M0.32 0.34 C89.82 0.06, 179.36 0.56, 423.75 -0.14 M425.93 -0.18 C426.73 30.47, 424.09 61.94, 422.5 134.01 M424.31 0.26 C424.14 42.38, 424.02 85.55, 423.57 135.37 M424.72 135.19 C330.77 136.8, 236.38 136.34, -1.01 135.8 M424.2 135.47 C257.85 136.46, 92.35 136.4, -0.1 135.99 M1.93 133.85 C-0.67 92.39, -0.43 46.3, 0.15 -0.97 M0.88 135.91 C1.75 90.41, 1.78 46.31, -0.73 -0.11" stroke="#000000" stroke-width="1" fill="none"></path></g><g transform="translate(1665.7889610389514 349.88100250707384) rotate(0 125.5 22.5)"><text x="125.5" y="32" font-family="Virgil, Segoe UI Emoji" font-size="36px" fill="#000000" text-anchor="middle" style="white-space: pre;" direction="ltr">LoaderCache()</text></g><g stroke-linecap="round" transform="translate(1568.483766233756 639.5931237191949) rotate(0 212.08766233766232 67.90373244641546)"><path d="M0.37 0.27 C148.39 -0.31, 299.55 -0.59, 423.23 0.43 M-0.26 0.17 C93.81 -0.51, 188.92 -0.12, 424.53 -0.1 M423.96 -1.9 C425.17 48.82, 424.72 100.38, 425.02 135.63 M423.43 0.25 C423.92 49.73, 423.47 98.89, 424.44 136.73 M424.1 136.04 C338.03 133.73, 250.39 133.87, 0.39 135.94 M424.52 135.46 C268.12 138.28, 111.83 137.7, -0.14 136.11 M0.18 134.49 C-0.69 91.44, 0.69 51.66, -0.02 1.64 M0.05 136.8 C0.73 90.62, 0.74 44.72, -0.99 -0.49" stroke="#000000" stroke-width="1" fill="none"></path></g><g transform="translate(1657.6222943722842 684.5476691737408) rotate(0 134 22.5)"><text x="134" y="32" font-family="Virgil, Segoe UI Emoji" font-size="36px" fill="#000000" text-anchor="middle" style="white-space: pre;" direction="ltr">LoaderShared()</text></g><g stroke-linecap="round"><g transform="translate(1412.2380952380852 573.045421016426) rotate(0 75.012901468255 79.46707566784312)"><path d="M1.09 0.78 C25.54 27.29, 122.82 132.47, 147.53 158.78 M0.2 0.15 C24.96 26.31, 125 130.21, 149.82 156.89" stroke="#000000" stroke-width="1" fill="none"></path></g><g transform="translate(1412.2380952380852 573.045421016426) rotate(0 75.012901468255 79.46707566784312)"><path d="M124.29 142.16 C133.55 149.88, 143.29 152.63, 149.3 158.05 M123.07 142.84 C131.83 147.17, 140.99 152.94, 149.82 157.7" stroke="#000000" stroke-width="1" fill="none"></path></g><g transform="translate(1412.2380952380852 573.045421016426) rotate(0 75.012901468255 79.46707566784312)"><path d="M139.17 128.04 C142.93 141.09, 147.18 149.04, 149.3 158.05 M137.95 128.71 C142.14 137.4, 146.61 147.63, 149.82 157.7" stroke="#000000" stroke-width="1" fill="none"></path></g></g><g stroke-linecap="round"><g transform="translate(1393.830434764293 490.46003617933616) rotate(0 85.71210327143888 -27.110128664312356)"><path d="M-0.88 -0.02 C27.83 -9.1, 143.73 -45.2, 172.31 -54.2 M0.86 -1.07 C29.49 -10.02, 143.13 -44.29, 171.83 -52.92" stroke="#000000" stroke-width="1" fill="none"></path></g><g transform="translate(1393.830434764293 490.46003617933616) rotate(0 85.71210327143888 -27.110128664312356)"><path d="M147.77 -33.47 C154.2 -41.6, 161.76 -47.47, 171.7 -53.46 M148.55 -35.28 C152.9 -38.53, 159.46 -43.1, 171.26 -52.64" stroke="#000000" stroke-width="1" fill="none"></path></g><g transform="translate(1393.830434764293 490.46003617933616) rotate(0 85.71210327143888 -27.110128664312356)"><path d="M141.85 -53.11 C150.12 -55.27, 159.47 -55.19, 171.7 -53.46 M142.63 -54.93 C148.48 -53.54, 156.43 -53.5, 171.26 -52.64" stroke="#000000" stroke-width="1" fill="none"></path></g></g><g stroke-linecap="round" transform="translate(2132.071428571419 446.330189498942) rotate(0 201 200.91666666666663)"><path d="M0.62 0.54 C89.5 0.94, 180.9 -0.39, 401.43 -0.8 M-0.19 0.47 C99.21 0.06, 197.79 -0.62, 402.01 -0.47 M401.51 -0.84 C402.01 140.77, 401.94 283.74, 402.63 402.11 M402.16 0.45 C401.47 108.62, 401.47 216.97, 402.41 401.47 M401.84 401.61 C243.37 403.03, 86.68 402.62, -0.52 401.63 M401.8 401.79 C292.66 400.59, 182.08 399.99, -0.04 401.36 M-1.12 400.9 C0.17 294.92, -0.15 187.76, 0.42 -0.44 M-0.26 402.16 C0.77 278.53, 1.67 155.62, -0.26 -0.33" stroke="#000000" stroke-width="1" fill="none"></path></g><g stroke-linecap="round"><g transform="translate(2018.1075144464082 438.99629544892264) rotate(0 40.32683727345386 88.6654794891823)"><path d="M0.06 0.29 C13.9 29.84, 68.41 148.38, 82.02 177.93 M-1.36 -0.6 C12.39 28.53, 67.32 146.12, 80.99 176.04" stroke="#000000" stroke-width="1" fill="none"></path></g><g transform="translate(2018.1075144464082 438.99629544892264) rotate(0 40.32683727345386 88.6654794891823)"><path d="M60.33 154.52 C65.29 158.59, 69.28 162.84, 80.21 175.11 M60.46 155.55 C66.74 161.78, 75.02 170.58, 80.34 175.34" stroke="#000000" stroke-width="1" fill="none"></path></g><g transform="translate(2018.1075144464082 438.99629544892264) rotate(0 40.32683727345386 88.6654794891823)"><path d="M78.95 145.9 C79.92 151.85, 79.86 157.97, 80.21 175.11 M79.09 146.93 C78.61 156.25, 80.23 168.14, 80.34 175.34" stroke="#000000" stroke-width="1" fill="none"></path></g></g><g stroke-linecap="round"><g transform="translate(2024.4612343550823 702.6202594689053) rotate(0 37.384493412251686 -49.96391425970535)"><path d="M-0.08 0.4 C12.65 -15.91, 63.53 -82.21, 76.35 -98.74 M-1.58 -0.43 C11.04 -16.99, 62.66 -83.63, 75.68 -100.33" stroke="#000000" stroke-width="1" fill="none"></path></g><g transform="translate(2024.4612343550823 702.6202594689053) rotate(0 37.384493412251686 -49.96391425970535)"><path d="M67.17 -70.87 C71.12 -78.58, 73.75 -88.25, 77.04 -99.34 M65.56 -71.7 C68.31 -78.39, 70.35 -86.79, 74.86 -101.33" stroke="#000000" stroke-width="1" fill="none"></path></g><g transform="translate(2024.4612343550823 702.6202594689053) rotate(0 37.384493412251686 -49.96391425970535)"><path d="M50.96 -83.46 C59.63 -87.42, 67.08 -93.35, 77.04 -99.34 M49.35 -84.29 C56.52 -87.6, 62.85 -92.66, 74.86 -101.33" stroke="#000000" stroke-width="1" fill="none"></path></g></g><g stroke-linecap="round" transform="translate(693.079004328994 943.0931237191929) rotate(0 166.32575757575773 67.90373244641546)"><path d="M1.15 0.63 C71.7 -1.27, 141.23 -1.86, 331.84 0.14 M0.32 0.09 C72.58 1.61, 146.89 2.27, 332.41 0.32 M332.24 -0.12 C331.13 33.75, 333.17 70.57, 332.61 134.96 M333.21 -0.36 C332.59 35.02, 332.44 70.65, 333.08 136.56 M331.85 136.19 C205.05 138.09, 76.4 138.12, 0.21 134.9 M332.77 136.38 C209.34 135.32, 86.35 135.41, 0.52 136.09 M-0.11 134.46 C2.69 89.95, 0.13 43.59, 0.71 1.25 M0.64 135.09 C0.21 106.83, 0.82 79.79, 0.86 -0.94" stroke="#000000" stroke-width="1" fill="none"></path></g><g transform="translate(737.169913419903 990.3810025070721) rotate(0 127 22.5)"><text x="127" y="32" font-family="Virgil, Segoe UI Emoji" font-size="36px" fill="#000000" text-anchor="middle" style="white-space: pre;" direction="ltr">LoadContext()</text></g><g stroke-linecap="round"><g transform="translate(601.0714285714184 993.6924666525003) rotate(0 39.34550962973685 5.14299893079226)"><path d="M1.14 0.34 C13.78 2.17, 63.53 8.24, 76.03 9.9 M0.28 -0.53 C13.29 1.5, 65.94 8.86, 78.41 10.81" stroke="#000000" stroke-width="1" fill="none"></path></g><g transform="translate(601.0714285714184 993.6924666525003) rotate(0 39.34550962973685 5.14299893079226)"><path d="M49.59 15.8 C56.45 13.74, 66.49 11.78, 80.3 11.86 M49.81 16.13 C57.27 14.37, 65.37 12.55, 79.27 10.29" stroke="#000000" stroke-width="1" fill="none"></path></g><g transform="translate(601.0714285714184 993.6924666525003) rotate(0 39.34550962973685 5.14299893079226)"><path d="M52.58 -4.5 C58.31 -0.06, 67.39 4.45, 80.3 11.86 M52.8 -4.17 C59.5 0, 66.72 4.14, 79.27 10.29" stroke="#000000" stroke-width="1" fill="none"></path></g></g><g stroke-linecap="round"><g transform="translate(1037.738095238085 979.3301894989418) rotate(0 51.84875660464172 -155.72308669290976)"><path d="M-0.96 0.05 C16.33 -51.75, 87.16 -258.03, 104.66 -309.59 M0.73 -0.97 C17.76 -52.63, 85.91 -259.78, 103.53 -311.49" stroke="#000000" stroke-width="1" fill="none"></path></g><g transform="translate(1037.738095238085 979.3301894989418) rotate(0 51.84875660464172 -155.72308669290976)"><path d="M104.42 -282.07 C104.43 -294.33, 104.64 -304.7, 104.77 -311.06 M104.33 -280.56 C103.74 -290.33, 104.19 -300.34, 103.89 -310.95" stroke="#000000" stroke-width="1" fill="none"></path></g><g transform="translate(1037.738095238085 979.3301894989418) rotate(0 51.84875660464172 -155.72308669290976)"><path d="M84.95 -288.57 C92.32 -298.24, 99.82 -306.17, 104.77 -311.06 M84.87 -287.06 C90.34 -294.71, 96.89 -302.69, 103.89 -310.95" stroke="#000000" stroke-width="1" fill="none"></path></g></g><g stroke-linecap="round"><g transform="translate(1033.3333333333226 1002.6397133084654) rotate(0 259.3732581906022 -141.08721478109555)"><path d="M-0.42 -0.6 C86.25 -47.73, 432.52 -234.61, 519.16 -281.57" stroke="#000000" stroke-width="1.5" fill="none" stroke-dasharray="8 9"></path></g><g transform="translate(1033.3333333333226 1002.6397133084654) rotate(0 259.3732581906022 -141.08721478109555)"><path d="M498.24 -260.53 C503.77 -265.21, 507.05 -270.59, 518.22 -281.23" stroke="#000000" stroke-width="1.5" fill="none"></path></g><g transform="translate(1033.3333333333226 1002.6397133084654) rotate(0 259.3732581906022 -141.08721478109555)"><path d="M488.48 -278.58 C496.44 -279.07, 501.96 -280.29, 518.22 -281.23" stroke="#000000" stroke-width="1.5" fill="none"></path></g></g><g stroke-linecap="round"><g transform="translate(791.6666666666556 767.6397133084654) rotate(0 387.6194208569825 -222.44675419626856)"><path d="M0.16 0.62 C20.98 -69.2, -5.41 -349.96, 123.75 -417.75 C252.9 -485.53, 666.51 -408.16, 775.08 -406.08" stroke="#000000" stroke-width="1.5" fill="none" stroke-dasharray="8 9"></path></g><g transform="translate(791.6666666666556 767.6397133084654) rotate(0 387.6194208569825 -222.44675419626856)"><path d="M747.05 -397.96 C749.97 -400.04, 755.78 -401.39, 774.62 -404.86" stroke="#000000" stroke-width="1.5" fill="none"></path></g><g transform="translate(791.6666666666556 767.6397133084654) rotate(0 387.6194208569825 -222.44675419626856)"><path d="M749.08 -418.38 C751.79 -416.36, 757.19 -413.62, 774.62 -404.86" stroke="#000000" stroke-width="1.5" fill="none"></path></g></g><g transform="translate(2177.9999999999877 487.30637997513145) rotate(0 162.5 22.5)"><text x="162.5" y="32" font-family="Virgil, Segoe UI Emoji" font-size="36px" fill="#000000" text-anchor="middle" style="white-space: pre;" direction="ltr">FirstLayerRender()</text></g><g transform="translate(2166.4999999999873 532.4730466417975) rotate(0 179 22.5)"><text x="179" y="32" font-family="Virgil, Segoe UI Emoji" font-size="36px" fill="#000000" text-anchor="middle" style="white-space: pre;" direction="ltr">SecondLayerRender()</text></g><g transform="translate(2163.3333333333208 577.4730466417975) rotate(0 175.5 22.5)"><text x="175.5" y="32" font-family="Virgil, Segoe UI Emoji" font-size="36px" fill="#000000" text-anchor="middle" style="white-space: pre;" direction="ltr">PlayerLayerRender()</text></g><g transform="translate(2162.8333333333208 637.473046641797) rotate(0 166 22.5)"><text x="166" y="32" font-family="Virgil, Segoe UI Emoji" font-size="36px" fill="#000000" text-anchor="middle" style="white-space: pre;" direction="ltr">ThirdLayerRender()</text></g><g transform="translate(2247.666666666652 686.4730466417968) rotate(0 85.5 22.5)"><text x="85.5" y="32" font-family="Virgil, Segoe UI Emoji" font-size="36px" fill="#000000" text-anchor="middle" style="white-space: pre;" direction="ltr">Watcher's</text></g><g transform="translate(2241.4999999999854 733.1397133084633) rotate(0 85 22.5)"><text x="85" y="32" font-family="Virgil, Segoe UI Emoji" font-size="36px" fill="#000000" text-anchor="middle" style="white-space: pre;" direction="ltr">Listener's</text></g><g stroke-linecap="round" transform="translate(2595.745670995657 521.4026475287149) rotate(0 130.08766233766232 67.90373244641546)"><path d="M0.27 -1.3 C66.2 0.42, 135.28 1.99, 259.12 -0.15 M0.57 -0.46 C89.75 -2.15, 179.07 -1.34, 259.98 0.28 M259.01 1.83 C261.49 39.66, 261.73 78.08, 260.72 137.51 M259.91 0.64 C259.28 43.02, 259.1 84.06, 259.55 136.48 M260.92 134.77 C186.54 133.52, 111.24 134.36, 1.5 136.83 M260.88 136.51 C192.98 137.57, 124.73 137.16, 0.45 135.07 M0.27 137.26 C1.75 85.97, -0.15 36.48, -1.96 -1.53 M-0.93 135.42 C0.65 89.85, 1.39 42.1, -0.6 -0.21" stroke="#000000" stroke-width="1" fill="none"></path></g><g transform="translate(2632.384199134185 568.3571929832608) rotate(0 100.5 22.5)"><text x="100.5" y="32" font-family="Virgil, Segoe UI Emoji" font-size="36px" fill="#000000" text-anchor="middle" style="white-space: pre;" direction="ltr">GameLoop()</text></g><g stroke-linecap="round" transform="translate(2912.912337662324 519.5693141953818) rotate(0 130.08766233766235 67.90373244641546)"><path d="M0.15 1.39 C89.99 -2.24, 177.89 -1.57, 258.6 1.02 M-0.02 -0.63 C80.84 -0.78, 159.6 -1.83, 260.03 -0.3 M258.98 -0.64 C259.94 40.93, 260.33 79.29, 258.2 137.42 M259.5 -0.07 C260.99 34.67, 260.64 68.6, 260.36 136.43 M261.11 135.34 C182.45 136.19, 105.59 138.77, -0.34 134.42 M260.78 136.2 C194.49 135.69, 130.65 136.89, -0.63 135.09 M-1.82 133.95 C1.68 93.58, 2.15 49.34, -0.07 0.32 M0.89 135.44 C2.04 96.61, 0.2 58.88, -0.65 0.9" stroke="#000000" stroke-width="1" fill="none"></path></g><g transform="translate(2941.550865800852 584.0238596499278) rotate(0 90.5 22.5)"><text x="90.5" y="32" font-family="Virgil, Segoe UI Emoji" font-size="36px" fill="#000000" text-anchor="middle" style="white-space: pre;" direction="ltr">NewLevel()</text></g><g stroke-linecap="round"><g transform="translate(2541.771567595076 604.1207643435057) rotate(0 17.06793224084214 0.9169515989218553)"><path d="M1.19 0.76 C6.71 0.78, 28.33 0.37, 33.78 0.15 M0.35 0.11 C5.71 0.34, 27.63 1.68, 33.17 1.72" stroke="#000000" stroke-width="1" fill="none"></path></g><g transform="translate(2541.771567595076 604.1207643435057) rotate(0 17.06793224084214 0.9169515989218553)"><path d="M18.44 7.68 C23.09 5.94, 27.68 2.22, 34.28 2.85 M17.99 6.72 C22.36 4.26, 28.21 3.42, 32.77 0.92" stroke="#000000" stroke-width="1" fill="none"></path></g><g transform="translate(2541.771567595076 604.1207643435057) rotate(0 17.06793224084214 0.9169515989218553)"><path d="M18.88 -3.65 C23.37 -1.37, 27.8 -1.06, 34.28 2.85 M18.42 -4.6 C22.66 -3.19, 28.36 -0.15, 32.77 0.92" stroke="#000000" stroke-width="1" fill="none"></path></g></g><g stroke-linecap="round"><g transform="translate(2880.9999999999864 585.3141844844206) rotate(0 9.640416925838224 -2.0035435598385902)"><path d="M-0.22 -0.38 C3.01 -0.55, 15.72 -1.46, 18.93 -1.62 M-1.8 -1.62 C1.84 -2.13, 17.21 -3.33, 21.08 -3.63" stroke="#000000" stroke-width="1" fill="none"></path></g><g transform="translate(2880.9999999999864 585.3141844844206) rotate(0 9.640416925838224 -2.0035435598385902)"><path d="M11.63 -0.36 C14.51 -1.33, 17.13 -0.84, 20.19 -4.07 M12.29 0.59 C15.46 -0.91, 19.31 -3.12, 21.17 -3.7" stroke="#000000" stroke-width="1" fill="none"></path></g><g transform="translate(2880.9999999999864 585.3141844844206) rotate(0 9.640416925838224 -2.0035435598385902)"><path d="M11.09 -7.21 C14.08 -6.39, 16.84 -4.13, 20.19 -4.07 M11.75 -6.26 C15.18 -5.04, 19.24 -4.53, 21.17 -3.7" stroke="#000000" stroke-width="1" fill="none"></path></g></g><g stroke-linecap="round"><g transform="translate(3035.9999999999854 502.4730466417968) rotate(0 -931.8233872003855 -245.7648750839336)"><path d="M1.19 -1.1 C-184.66 -82.98, -804.5 -488.93, -1115.51 -492.47 C-1426.51 -496.02, -1740.25 -100.75, -1864.83 -22.35 M0.35 0.94 C-185.58 -80.67, -805.74 -487.49, -1116.2 -491.18 C-1426.65 -494.88, -1738.03 -99.58, -1862.38 -21.22" stroke="#000000" stroke-width="1" fill="none"></path></g><g transform="translate(3035.9999999999854 502.4730466417968) rotate(0 -931.8233872003855 -245.7648750839336)"><path d="M-1849.66 -46.63 C-1852.74 -41.74, -1856.4 -31.78, -1862.49 -21.29 M-1847.51 -48.24 C-1849.89 -41.66, -1853.28 -36.7, -1861.57 -21.48" stroke="#000000" stroke-width="1" fill="none"></path></g><g transform="translate(3035.9999999999854 502.4730466417968) rotate(0 -931.8233872003855 -245.7648750839336)"><path d="M-1836.2 -31.15 C-1842.7 -30.23, -1849.93 -24.38, -1862.49 -21.29 M-1834.05 -32.76 C-1839.23 -29.27, -1845.43 -27.55, -1861.57 -21.48" stroke="#000000" stroke-width="1" fill="none"></path></g></g><g stroke-linecap="round" transform="translate(2904.245670995657 704.5693141953814) rotate(0 130.08766233766235 67.90373244641546)"><path d="M-0.84 0.34 C81.72 1.11, 162.2 -0.36, 261.14 0.98 M-0.63 0.28 C90.63 1.66, 179.93 1.66, 260.45 0.36 M258.9 0.16 C259.04 31.68, 259.49 61.41, 260.29 137.29 M260.44 0.63 C261.83 47.94, 260.14 94.46, 259.92 136.38 M259.45 135.98 C205.84 134.45, 152.41 135.32, 1.4 134.92 M260.34 135.6 C176.76 135.28, 94.7 134.42, 0.24 135.69 M-1.82 134.7 C-0.82 99.57, 1.72 65.31, -0.92 0.06 M0.92 136.36 C1.19 94.51, 1.02 54.35, -0.47 0.47" stroke="#000000" stroke-width="1" fill="none"></path></g><g transform="translate(2950.884199134185 771.5238596499273) rotate(0 80.5 22.5)"><text x="80.5" y="32" font-family="Virgil, Segoe UI Emoji" font-size="36px" fill="#000000" text-anchor="middle" style="white-space: pre;" direction="ltr">ToMenu()</text></g><g stroke-linecap="round"><g transform="translate(2724.333333333319 676.4730466417968) rotate(0 83.477225381881 45.94640877768393)"><path d="M-0.57 -0.91 C27.33 14.64, 139.25 77.2, 167.53 92.8 M1.33 1.23 C29.03 16.49, 138.41 76.19, 166.33 91.1" stroke="#000000" stroke-width="1" fill="none"></path></g><g transform="translate(2724.333333333319 676.4730466417968) rotate(0 83.477225381881 45.94640877768393)"><path d="M135.14 85.93 C147.1 89.99, 156.05 89.13, 166.76 89.85 M135.75 85.8 C144.01 88.41, 152.12 88.62, 166.3 91.7" stroke="#000000" stroke-width="1" fill="none"></path></g><g transform="translate(2724.333333333319 676.4730466417968) rotate(0 83.477225381881 45.94640877768393)"><path d="M144.9 67.88 C153.78 77.44, 159.73 82.14, 166.76 89.85 M145.51 67.75 C151.39 74.74, 157.09 79.42, 166.3 91.7" stroke="#000000" stroke-width="1" fill="none"></path></g></g><g stroke-linecap="round"><g transform="translate(3022.333333333319 864.4730466417968) rotate(0 -1446.4966340514522 240.23497883227634)"><path d="M0.09 1.18 C-419.14 80.98, -2034.24 476.55, -2516.44 478.8 C-2998.63 481.06, -2830.46 92.25, -2893.08 14.71 M-1.32 0.76 C-420.63 80.65, -2035.89 477.72, -2517.44 479.71 C-2998.98 481.71, -2828.19 90.28, -2890.58 12.74" stroke="#000000" stroke-width="1" fill="none"></path></g><g transform="translate(3022.333333333319 864.4730466417968) rotate(0 -1446.4966340514522 240.23497883227634)"><path d="M-2874.9 39.25 C-2881.8 32.47, -2881.56 28.3, -2891.31 12.15 M-2875.95 40.34 C-2880.69 33.14, -2884.56 26.01, -2890.06 13.02" stroke="#000000" stroke-width="1" fill="none"></path></g><g transform="translate(3022.333333333319 864.4730466417968) rotate(0 -1446.4966340514522 240.23497883227634)"><path d="M-2895.26 41.82 C-2897.8 34.47, -2893.21 29.76, -2891.31 12.15 M-2896.31 42.91 C-2895.78 35.12, -2894.4 27.33, -2890.06 13.02" stroke="#000000" stroke-width="1" fill="none"></path></g></g><g transform="translate(2259.6666666666524 381.3063799751301) rotate(0 62.5 22.5)"><text x="62.5" y="32" font-family="Virgil, Segoe UI Emoji" font-size="36px" fill="#000000" text-anchor="middle" style="white-space: pre;" direction="ltr">setup()</text></g><g transform="translate(2237.1666666666524 789.8063799751299) rotate(0 97.5 22.5)"><text x="97.5" y="32" font-family="Virgil, Segoe UI Emoji" font-size="36px" fill="#000000" text-anchor="middle" style="white-space: pre;" direction="ltr">CreateUI()</text></g><g transform="translate(2940.1666666666524 724.8063799751301) rotate(0 87 22.5)"><text x="87" y="32" font-family="Virgil, Segoe UI Emoji" font-size="36px" fill="#000000" text-anchor="middle" style="white-space: pre;" direction="ltr">Serialize()</text></g><g transform="translate(2945.1666666666524 534.8063799751301) rotate(0 87 22.5)"><text x="87" y="32" font-family="Virgil, Segoe UI Emoji" font-size="36px" fill="#000000" text-anchor="middle" style="white-space: pre;" direction="ltr">Serialize()</text></g></svg>